<?xml version="1.0" standalone="no"?>
<!DOCTYPE svg PUBLIC "-//W3C//DTD SVG 20010904//EN" "http://www.w3.org/TR/2001/REC-SVG-20010904/DTD/svg10.dtd">
<svg xmlns="http://www.w3.org/2000/svg" version="1.0" width="356.000000pt" height="702.000000pt" viewBox="0 0 356.000000 702.000000" preserveAspectRatio="xMidYMid meet">
<metadata>
Created by potrace 1.16, written by Peter Selinger 2001-2019
<meta name="Producer" content="Online-Convert"/></metadata>
<g transform="translate(0.000000,702.000000) scale(0.100000,-0.100000)" fill="#000000" stroke="none">
<path d="M823 6983 c-23 -35 -22 -97 6 -233 11 -58 25 -139 31 -180 5 -41 16 -100 25 -130 8 -30 15 -74 15 -99 0 -45 26 -159 41 -175 4 -4 6 23 4 60 -2 38 -8 159 -13 269 -6 130 -15 216 -25 247 -15 45 -15 48 4 72 26 33 40 32 114 -2 77 -37 162 -115 226 -208 55 -78 94 -114 148 -132 48 -17 57 -15 30 7 -22 18 -23 21 -8 36 15 16 19 16 49 0 31 -16 33 -16 71 10 38 27 76 30 122 10 14 -6 17 -2 17 24 0 22 5 31 17 31 9 0 31 5 50 12 29 11 35 10 48 -8 19 -25 19 -34 -1 -34 -19 0 -15 -22 15 -93 18 -42 64 -87 77 -75 2 3 -7 29 -21 59 -31 67 -31 73 0 93 35 23 99 9 103 -23 2 -13 -1 -28 -7 -34 -16 -16 -13 -47 4 -47 17 0 35 30 36 62 l0 23 9 -22 c11 -26 -2 -78 -26 -104 -11 -13 -14 -27 -10 -46 4 -15 8 -37 9 -48 3 -27 15 -45 32 -45 9 0 15 22 20 75 8 80 20 97 31 40 3 -19 10 -35 15 -35 14 0 11 87 -3 111 -12 18 -8 24 32 60 40 34 49 38 82 33 30 -5 38 -2 48 15 6 12 17 21 25 21 8 0 15 5 15 10 0 17 -15 11 -39 -14 -19 -20 -29 -23 -58 -19 -25 4 -39 2 -47 -8 -6 -8 -28 -25 -48 -39 -20 -14 -42 -34 -47 -45 -11 -20 -11 -20 -10 0 2 43 -2 55 -27 78 -33 31 -120 44 -144 22 -20 -18 -30 -19 -30 -2 0 19 -51 63 -81 71 -34 7 -79 -26 -79 -58 0 -22 -3 -23 -50 -18 -42 4 -55 1 -83 -21 -30 -23 -36 -24 -62 -12 -31 14 -112 95 -225 225 -73 85 -189 200 -201 200 -4 0 27 -35 69 -78 131 -132 294 -312 283 -312 -23 0 -59 23 -74 48 -9 15 -74 86 -144 158 -138 142 -225 203 -300 212 -24 2 -40 8 -37 13 10 17 79 9 132 -16 60 -28 61 -15 2 15 -24 12 -59 20 -89 20 -44 0 -53 -4 -68 -27z"/>
<path d="M3160 6925 c-52 -29 -111 -70 -132 -89 -20 -20 -50 -39 -67 -42 -20 -4 -37 -16 -46 -33 -7 -14 -61 -69 -119 -121 -58 -52 -106 -98 -106 -102 0 -4 -7 -8 -15 -8 -8 0 -19 -9 -25 -20 -14 -27 -22 -25 -61 11 -18 17 -43 35 -54 40 -11 5 -27 13 -35 18 -55 31 -82 41 -113 41 -20 0 -38 -4 -41 -8 -2 -4 11 -6 31 -4 48 6 82 -14 80 -46 -1 -14 4 -27 11 -29 7 -3 12 4 12 17 0 13 5 20 13 17 6 -2 10 -11 8 -18 -2 -8 -6 -22 -8 -31 -8 -27 36 -23 46 4 6 16 10 18 16 9 4 -8 2 -17 -5 -21 -7 -4 -10 -15 -7 -24 8 -20 37 -21 37 -1 0 19 14 19 30 0 11 -13 21 -8 74 37 33 29 109 98 167 155 58 57 112 103 119 103 7 0 33 18 59 39 70 59 212 141 244 141 51 0 67 -16 67 -65 0 -24 -7 -70 -15 -102 -33 -126 -40 -231 -22 -341 16 -93 16 -106 1 -164 -9 -35 -36 -101 -60 -148 -41 -77 -49 -87 -89 -104 -25 -10 -45 -22 -45 -26 0 -5 16 -26 35 -47 19 -20 42 -53 52 -73 10 -19 30 -53 44 -75 32 -48 77 -136 95 -185 7 -19 13 -28 13 -19 1 23 -19 80 -39 109 -10 14 -40 68 -68 120 -45 86 -49 97 -36 115 8 10 14 40 14 65 0 32 10 67 34 116 73 150 74 153 97 304 26 167 44 387 36 430 -10 51 -54 98 -97 104 -29 5 -51 -4 -130 -49z"/>
<path d="M978 6134 l22 -19 -36 -70 c-21 -38 -45 -81 -55 -94 -11 -13 -19 -28 -19 -33 0 -4 -20 -41 -44 -81 -87 -145 -90 -152 -94 -274 -4 -104 -3 -112 17 -124 l20 -13 -22 -24 c-21 -22 -21 -24 -5 -36 17 -12 16 -17 -6 -74 -24 -61 -27 -112 -11 -209 3 -18 0 -42 -7 -54 -10 -17 -10 -23 0 -26 18 -7 17 -12 -44 -148 -30 -69 -53 -134 -51 -143 3 -15 5 -14 12 3 4 11 21 54 37 95 16 41 33 79 37 83 16 16 41 -7 56 -53 21 -63 42 -82 61 -55 20 27 17 42 -10 61 -20 12 -26 27 -31 72 -9 79 -14 92 -37 101 -18 7 -16 9 18 25 137 61 243 112 244 117 0 8 -115 19 -192 19 -46 0 -61 4 -78 22 -26 28 -25 32 7 58 15 12 33 40 40 63 17 56 17 57 -13 57 l-26 0 26 31 c18 21 24 37 20 54 -3 12 -1 26 5 29 23 14 12 62 -19 84 -16 13 -30 32 -30 43 0 37 40 133 89 214 66 109 151 271 151 290 0 8 -4 15 -9 15 -5 0 -18 3 -28 7 -14 5 -13 2 5 -13z"/>
<path d="M1428 6143 c-17 -3 -46 -26 -82 -67 l-55 -63 9 -63 c17 -119 69 -155 223 -155 53 1 97 -2 97 -6 0 -4 8 -10 17 -13 11 -4 28 4 50 26 31 30 33 35 33 105 0 85 -14 126 -61 172 -59 59 -131 79 -231 64z"/>
<path d="M2415 6111 c-80 -37 -135 -126 -151 -245 -7 -51 -1 -57 71 -68 28 -4 78 -12 113 -19 56 -11 69 -10 130 10 76 25 126 67 143 120 7 20 19 41 27 47 13 9 12 13 -4 25 -10 8 -36 35 -57 62 -21 26 -56 56 -77 67 -51 26 -141 26 -195 1z"/>
<path d="M1811 5851 c-12 -12 -21 -34 -21 -53 -1 -18 -7 -44 -15 -58 -20 -35 -19 -38 22 -55 42 -18 83 -52 83 -70 0 -7 9 -20 19 -29 54 -49 23 -152 -74 -245 -30 -29 -55 -50 -55 -47 0 7 -27 -14 -87 -68 -23 -21 -40 -42 -37 -47 3 -5 -2 -6 -10 -3 -9 3 -16 1 -16 -4 0 -6 -16 -23 -35 -38 -27 -20 -38 -24 -48 -15 -18 14 -65 -34 -69 -69 -3 -21 5 -29 44 -48 45 -21 50 -22 85 -7 52 22 100 71 128 130 31 64 74 106 111 107 59 3 76 -2 81 -23 5 -17 10 -19 37 -13 79 18 136 -7 196 -88 25 -33 71 -82 102 -109 58 -48 58 -48 93 -34 19 8 44 15 55 15 32 0 16 15 -60 60 -40 24 -77 53 -89 73 -11 19 -46 57 -76 86 -113 107 -175 217 -175 312 0 43 5 55 33 84 18 18 58 43 90 55 61 23 69 33 38 49 -10 6 -24 25 -30 43 -11 29 -9 35 10 51 13 10 18 21 13 26 -5 5 -70 16 -144 25 -74 9 -145 19 -157 22 -14 4 -28 -1 -42 -15z"/>
<path d="M2540 5623 c0 -7 6 -13 13 -13 19 0 54 -39 71 -82 21 -49 80 -96 132 -104 24 -3 68 0 105 9 l64 14 -50 7 c-73 10 -126 25 -162 48 -29 17 -33 25 -33 62 l0 43 -70 15 c-57 12 -70 12 -70 1z"/>
<path d="M3359 5455 c-2 -55 -2 -117 -1 -138 2 -34 1 -36 -16 -26 -9 6 -22 21 -28 32 -31 62 -99 173 -120 196 -52 56 -34 -18 28 -118 16 -25 28 -50 28 -56 0 -5 9 -27 20 -47 13 -25 17 -47 13 -72 -4 -27 1 -47 24 -88 28 -48 30 -58 22 -108 -4 -30 -24 -101 -43 -158 -40 -114 -43 -135 -20 -130 8 2 28 32 44 68 32 71 73 129 85 118 4 -4 27 -85 51 -180 23 -95 43 -167 43 -160 2 28 -50 240 -80 327 -54 160 -61 192 -55 274 3 42 8 103 10 136 2 33 7 82 10 110 3 27 2 66 -3 85 -7 29 -10 16 -12 -65z"/>
<path d="M618 4673 c-15 -17 -39 -60 -73 -130 -8 -18 -20 -33 -25 -33 -6 0 -9 -12 -8 -27 2 -35 -16 -90 -53 -165 -16 -32 -29 -62 -29 -68 0 -6 -23 -57 -51 -113 -28 -56 -61 -136 -74 -177 -12 -41 -34 -106 -48 -144 -15 -38 -31 -103 -38 -145 -6 -42 -17 -93 -25 -113 -8 -21 -13 -76 -13 -130 0 -94 -18 -205 -41 -249 -8 -13 -33 -71 -58 -129 -50 -119 -63 -193 -68 -379 -1 -67 -5 -126 -8 -129 -3 -3 -6 -33 -6 -66 0 -53 4 -66 28 -92 l28 -31 -19 -26 c-19 -25 -19 -26 1 -59 11 -18 34 -73 51 -122 18 -53 38 -94 50 -103 31 -21 48 -61 62 -139 7 -38 19 -74 27 -81 8 -7 12 -21 9 -33 -6 -23 21 -28 42 -7 20 20 41 -19 41 -79 0 -73 12 -98 59 -125 23 -12 43 -32 46 -43 16 -56 39 -96 57 -96 18 0 58 -53 58 -77 0 -7 18 -38 40 -70 22 -32 46 -67 53 -77 26 -42 72 -77 92 -72 116 30 126 31 163 11 19 -11 44 -31 54 -45 25 -35 41 -131 36 -221 -4 -68 -10 -87 -61 -188 l-57 -113 0 -153 c0 -191 15 -243 92 -307 27 -22 58 -59 69 -80 l20 -40 57 7 c31 4 67 13 79 21 12 7 41 17 65 20 56 9 75 19 83 45 7 21 7 21 19 -2 18 -36 42 -35 61 2 10 18 30 43 46 56 15 13 48 66 73 117 39 80 47 107 55 187 13 130 15 233 6 457 -5 105 -5 192 -1 192 4 0 20 -10 36 -21 23 -17 49 -23 123 -28 73 -5 100 -10 116 -25 17 -16 31 -18 80 -13 33 3 74 12 92 21 43 22 96 21 108 -1 5 -10 11 -65 14 -123 3 -58 12 -130 21 -160 11 -37 15 -88 14 -155 l-2 -100 48 -90 c72 -133 174 -230 262 -249 20 -5 34 -15 37 -27 4 -16 12 -20 34 -17 27 3 28 6 33 63 l5 60 6 -54 c7 -57 22 -75 54 -65 11 3 60 8 108 11 100 6 106 11 138 106 9 27 24 58 33 69 45 52 49 157 10 263 -14 39 -29 86 -33 106 -10 48 -45 104 -82 130 -16 11 -29 30 -29 42 -1 12 -9 47 -20 77 -24 69 -26 152 -4 171 10 8 14 23 12 40 -4 22 0 29 16 31 22 3 51 51 61 101 3 15 26 47 50 71 44 42 95 109 95 125 0 4 12 18 26 32 41 39 65 85 59 112 -6 22 -4 24 19 20 19 -4 28 0 33 13 3 11 44 56 91 101 72 70 89 93 113 153 16 39 29 78 29 85 0 8 11 22 24 30 30 20 60 120 51 169 -6 27 -2 39 15 56 17 17 21 29 16 56 -5 24 -1 45 15 75 17 34 20 55 17 108 -3 43 0 75 9 91 9 18 13 73 13 186 0 153 -1 163 -25 208 -25 47 -25 48 -5 53 30 8 27 56 -5 77 -28 18 -34 46 -10 46 18 0 20 31 3 49 -7 7 -13 27 -14 44 -3 189 -5 211 -14 197 -5 -8 -7 -26 -4 -40 3 -19 2 -20 -4 -7 -7 18 -8 18 -23 0 -9 -10 -29 -43 -45 -73 -16 -30 -32 -57 -35 -60 -3 -3 -13 -19 -22 -36 -12 -24 -15 -48 -10 -105 10 -131 8 -150 -29 -229 -20 -41 -39 -100 -43 -130 -8 -66 -31 -144 -55 -185 -10 -16 -30 -66 -45 -110 -35 -105 -80 -192 -117 -232 -51 -53 -144 -89 -278 -108 -38 -6 -54 -16 -104 -68 -41 -43 -71 -87 -97 -143 -49 -106 -55 -108 -236 -100 -160 8 -174 8 -313 1 -93 -5 -108 -3 -129 13 -23 18 -24 24 -25 155 0 76 -5 140 -11 146 -5 5 -50 21 -100 36 -49 14 -102 34 -117 45 -37 27 -45 26 -86 -17 l-34 -37 -46 25 c-39 20 -52 36 -82 94 -19 38 -37 72 -41 75 -3 3 -13 22 -22 43 -10 20 -22 37 -28 37 -14 0 -69 -29 -69 -36 0 -4 23 -46 51 -95 48 -83 51 -91 39 -119 -16 -38 -23 -38 -57 3 -42 49 -108 114 -207 202 -93 83 -158 149 -184 186 -14 20 -14 21 9 14 38 -12 111 -54 157 -92 25 -21 49 -33 58 -29 24 9 8 44 -48 103 -91 97 -101 160 -43 255 30 49 40 75 42 118 5 77 -1 83 -73 71 -32 -5 -62 -7 -66 -5 -3 2 4 23 16 47 24 45 46 121 46 159 0 52 -23 96 -85 163 -137 147 -215 268 -199 309 6 16 182 -67 229 -109 17 -15 44 -35 60 -46 34 -22 95 -26 95 -6 0 13 -7 20 -79 77 -52 40 -101 113 -101 150 0 16 -12 37 -31 56 -38 36 -219 306 -219 326 0 18 67 41 197 68 72 15 110 29 168 65 41 25 79 45 83 45 14 0 42 35 42 53 0 31 -43 24 -87 -13 -49 -43 -100 -60 -197 -67 l-71 -6 -21 59 c-28 79 -44 87 -87 46 -18 -17 -38 -32 -44 -32 -6 0 -14 27 -18 60 -7 64 -13 70 -38 42 -12 -13 -15 -28 -10 -56 3 -21 0 -54 -7 -75 -11 -33 -10 -46 5 -90 32 -97 1 -228 -80 -333 -24 -31 -56 -81 -71 -110 -14 -29 -43 -75 -64 -103 -20 -27 -45 -70 -54 -94 -49 -127 -115 -137 -71 -11 8 23 15 55 15 71 0 35 46 205 66 241 8 14 14 36 14 49 0 13 22 71 49 129 133 285 163 357 165 397 1 23 9 50 18 60 18 21 102 173 95 173 -2 0 -11 -8 -19 -17z m2417 -2575 c-4 -16 -31 -77 -61 -136 -30 -59 -54 -112 -54 -119 0 -15 -72 -26 -175 -26 -79 -1 -125 12 -125 35 0 23 79 84 166 128 87 44 127 68 168 102 60 48 72 56 79 51 5 -3 5 -18 2 -35z m-148 -401 c-3 -18 -27 -71 -55 -119 -45 -78 -49 -93 -55 -166 -7 -107 -32 -156 -125 -243 l-74 -69 35 -32 35 -33 6 -156 6 -156 -28 -13 c-15 -7 -68 -30 -119 -50 -152 -63 -197 -62 -248 4 -39 51 -39 114 0 180 26 45 29 60 36 185 7 136 27 221 53 221 6 0 43 -9 81 -20 89 -26 125 -26 125 -2 0 20 -44 65 -72 75 -24 8 -58 66 -58 97 0 35 32 84 71 107 19 11 77 37 130 57 81 31 107 47 165 101 80 74 99 81 91 32z m-1626 -171 c157 -9 209 -52 228 -190 5 -36 23 -101 39 -143 28 -72 31 -93 41 -286 10 -199 10 -210 -8 -235 -54 -77 -99 -87 -197 -44 -38 16 -94 35 -124 42 -65 15 -118 40 -143 68 -19 20 -18 21 15 26 18 3 62 8 98 11 36 4 70 11 77 17 17 13 17 80 1 96 -9 9 -13 45 -13 106 l0 93 41 45 c23 25 54 64 69 87 23 34 25 44 15 56 -7 8 -19 15 -26 15 -27 0 -122 -48 -137 -70 -14 -21 -19 -22 -45 -11 -16 7 -39 30 -51 51 -33 59 -65 252 -45 272 3 3 22 4 42 2 20 -2 76 -5 123 -8z m1618 -1200 l30 -44 -22 -60 c-22 -62 -34 -72 -84 -72 -13 0 -23 5 -23 10 0 6 5 10 10 10 15 0 12 51 -5 100 -8 23 -15 44 -15 46 0 9 56 54 67 54 7 0 26 -20 42 -44z m-1731 -163 c4 -110 -4 -127 -60 -131 -43 -2 -45 -1 -60 35 -15 39 -14 68 3 58 5 -4 6 1 3 9 -13 34 67 124 101 113 6 -2 11 -40 13 -84z"/>
<path d="M1085 4540 c-4 -6 -9 -35 -12 -64 l-6 -54 99 -7 c55 -3 118 -8 142 -9 53 -4 62 -12 33 -32 -34 -24 -61 -56 -55 -66 8 -13 21 -10 66 21 32 21 64 32 123 40 119 17 125 19 125 41 0 26 -26 35 -115 44 -169 17 -354 61 -371 87 -7 12 -21 11 -29 -1z"/>
<path d="M1094 3492 c-14 -10 -44 -80 -44 -102 0 -12 7 -20 18 -21 90 -6 121 -19 207 -89 85 -69 175 -124 235 -145 165 -58 278 -70 353 -37 43 19 117 84 149 131 12 17 26 24 47 23 25 0 31 4 36 29 4 18 2 36 -5 44 -42 51 -293 84 -530 69 -234 -14 -249 -12 -355 56 -46 29 -100 49 -111 42z"/>
<path d="M2486 3291 c-10 -16 39 -50 79 -53 36 -3 40 -6 43 -33 4 -39 48 -85 81 -85 35 0 102 34 136 70 l29 30 -25 26 c-39 42 -57 48 -86 29 -20 -13 -31 -15 -49 -6 -13 6 -54 13 -91 16 -38 4 -78 8 -90 11 -12 2 -24 0 -27 -5z"/>
</g>
</svg>
