<?xml version="1.0" standalone="no"?>
<!DOCTYPE svg PUBLIC "-//W3C//DTD SVG 20010904//EN"
 "http://www.w3.org/TR/2001/REC-SVG-20010904/DTD/svg10.dtd">
<svg version="1.0" xmlns="http://www.w3.org/2000/svg"
 width="356.000000pt" height="702.000000pt" viewBox="0 0 356.000000 702.000000"
 preserveAspectRatio="xMidYMid meet">

<g transform="translate(0.000000,702.000000) scale(0.100000,-0.100000)"
fill="#000000" stroke="none">
<path d="M823 6954 c-6 -17 -7 -56 -2 -94 10 -89 55 -333 74 -400 8 -30 15
-79 16 -110 0 -30 9 -77 20 -105 l19 -50 -5 55 c-3 30 -9 143 -14 250 -6 127
-14 211 -24 242 -15 45 -15 48 4 72 26 33 40 32 114 -2 77 -37 162 -115 226
-208 55 -78 94 -114 148 -132 48 -17 57 -15 30 7 -19 15 -21 22 -12 32 18 18
4 39 -36 55 -21 8 -44 27 -53 42 -9 15 -75 86 -145 158 -142 145 -226 204
-304 212 -44 4 -47 3 -56 -24z"/>
<path d="M3340 6893 c0 -23 -7 -68 -15 -100 -31 -119 -39 -224 -25 -322 7 -50
17 -91 21 -91 5 0 9 3 9 8 0 4 6 39 14 77 23 108 27 159 26 305 0 105 -4 138
-15 150 -13 13 -15 9 -15 -27z"/>
<path d="M1697 6613 c-25 -24 14 -30 53 -8 l25 14 -36 1 c-20 0 -39 -3 -42 -7z"/>
<path d="M1784 6536 c14 -55 46 -116 71 -132 35 -23 40 -13 17 33 -11 21 -23
49 -27 63 -16 53 -74 87 -61 36z"/>
<path d="M2452 6548 c5 -15 28 -23 28 -10 0 5 -7 13 -16 16 -10 4 -14 1 -12
-6z"/>
<path d="M1968 6521 c2 -16 -1 -32 -7 -35 -16 -10 -13 -46 4 -46 30 0 48 73
23 98 -19 19 -25 14 -20 -17z"/>
<path d="M2502 6538 c-20 -20 -14 -40 11 -36 14 2 22 10 22 22 0 24 -16 31
-33 14z"/>
<path d="M2235 6521 c-17 -10 -35 -24 -41 -32 -12 -16 -74 -173 -74 -188 0
-36 50 23 69 80 6 20 21 45 32 55 31 28 63 84 53 94 -6 6 -22 2 -39 -9z"/>
<path d="M2551 6511 c-8 -5 -11 -16 -8 -25 8 -20 37 -21 37 -1 0 8 0 18 1 22
1 12 -15 14 -30 4z"/>
<path d="M2048 6453 c-8 -22 -18 -31 -28 -28 -23 7 -53 -41 -45 -73 3 -15 7
-36 8 -47 3 -27 15 -45 32 -45 9 0 15 22 20 75 8 80 20 97 31 40 3 -19 10 -35
15 -35 15 0 10 85 -6 116 l-15 29 -12 -32z"/>
<path d="M1626 6458 c-14 -46 -12 -58 19 -93 l32 -38 6 49 c4 41 2 53 -16 72
-23 25 -36 28 -41 10z"/>
<path d="M1428 6143 c-17 -3 -46 -26 -82 -67 l-55 -63 9 -63 c17 -119 69 -155
223 -155 53 1 97 -2 97 -6 0 -4 8 -10 17 -13 11 -4 28 4 50 26 31 30 33 35 33
105 0 85 -14 126 -61 172 -59 59 -131 79 -231 64z m152 -125 c0 -5 -2 -8 -5
-8 -9 0 -45 34 -45 43 0 10 49 -25 50 -35z"/>
<path d="M2415 6111 c-80 -37 -135 -126 -151 -245 -7 -51 -1 -57 71 -68 28 -4
78 -12 113 -19 56 -11 69 -10 130 10 76 25 126 67 143 120 7 20 19 41 27 47
13 9 12 13 -4 25 -10 8 -36 35 -57 62 -21 26 -56 56 -77 67 -51 26 -141 26
-195 1z m95 -85 c0 -11 -19 -15 -25 -6 -3 5 1 10 9 10 9 0 16 -2 16 -4z m30
-26 c0 -5 -2 -10 -4 -10 -3 0 -8 5 -11 10 -3 6 -1 10 4 10 6 0 11 -4 11 -10z"/>
<path d="M3143 6033 c-18 -9 -33 -20 -33 -24 0 -4 16 -25 35 -46 l35 -38 0 28
c0 16 4 26 10 22 12 -7 24 39 16 60 -7 19 -22 18 -63 -2z"/>
<path d="M1811 5851 c-12 -12 -21 -34 -21 -53 -1 -18 -7 -44 -15 -58 -20 -35
-19 -38 22 -55 42 -18 83 -52 83 -70 0 -7 9 -20 19 -29 54 -49 23 -152 -74
-245 -30 -29 -55 -50 -55 -47 0 7 -27 -14 -87 -68 -23 -21 -40 -42 -37 -47 3
-5 -2 -6 -10 -3 -9 3 -16 1 -16 -4 0 -6 -16 -23 -35 -38 -27 -20 -38 -24 -48
-15 -18 14 -65 -34 -69 -69 -3 -21 5 -29 44 -48 45 -21 50 -22 85 -7 52 22
100 71 128 130 31 64 74 106 111 107 59 3 76 -2 81 -23 5 -17 10 -19 37 -13
79 18 136 -7 196 -88 25 -33 71 -82 102 -109 58 -48 58 -48 93 -34 19 8 44 15
55 15 32 0 16 15 -60 60 -40 24 -77 53 -89 73 -11 19 -46 57 -76 86 -113 107
-175 217 -175 312 0 43 5 55 33 84 18 18 58 43 90 55 61 23 69 33 38 49 -10 6
-24 25 -30 43 -11 29 -9 35 10 51 13 10 18 21 13 26 -5 5 -70 16 -144 25 -74
9 -145 19 -157 22 -14 4 -28 -1 -42 -15z"/>
<path d="M2540 5623 c0 -7 6 -13 13 -13 19 0 54 -39 71 -82 21 -49 80 -96 132
-104 24 -3 68 0 105 9 l64 14 -50 7 c-73 10 -126 25 -162 48 -29 17 -33 25
-33 62 l0 43 -70 15 c-57 12 -70 12 -70 1z"/>
<path d="M757 5578 c-9 -71 0 -115 26 -133 26 -18 39 -10 31 20 -3 12 -1 26 5
29 21 14 12 63 -15 80 -14 10 -29 27 -33 38 -6 17 -9 9 -14 -34z"/>
<path d="M3160 5528 c1 -7 14 -38 30 -68 17 -30 39 -75 50 -100 12 -25 27 -57
35 -71 9 -16 12 -39 9 -61 -8 -44 34 -136 46 -103 15 43 20 164 8 172 -7 4
-19 19 -27 33 -8 14 -32 56 -53 93 -54 95 -99 143 -98 105z"/>
<path d="M1135 5502 c-5 -4 -16 -18 -23 -30 -12 -22 -12 -23 7 -18 12 3 30 9
41 12 24 6 26 29 4 38 -19 7 -17 7 -29 -2z"/>
<path d="M790 5365 c8 -10 9 -19 3 -27 -6 -7 -15 -28 -21 -46 -10 -30 -10 -31
7 -22 10 5 21 22 24 37 4 15 9 38 13 51 5 18 2 22 -16 22 -19 0 -20 -2 -10
-15z"/>
<path d="M750 5151 c0 -33 5 -71 11 -85 10 -21 15 -23 38 -15 48 17 230 104
231 110 0 7 -115 19 -192 19 -38 0 -62 5 -72 16 -15 14 -16 10 -16 -45z"/>
<path d="M3337 5073 c-4 -3 -7 -21 -7 -38 0 -18 -18 -84 -40 -149 -22 -64 -40
-124 -40 -132 0 -35 33 -5 59 54 15 35 39 77 52 95 26 35 26 55 2 130 -16 51
-16 50 -26 40z"/>
<path d="M759 5011 c11 -7 10 -17 -9 -56 -19 -39 -20 -49 -9 -56 8 -5 17 -9
21 -9 3 0 14 -22 23 -49 21 -64 42 -83 61 -56 20 27 17 42 -10 61 -20 12 -26
27 -31 72 -8 73 -20 102 -42 102 -14 0 -15 -2 -4 -9z"/>
<path d="M1085 4540 c-4 -6 -9 -35 -12 -64 l-6 -54 99 -7 c55 -3 118 -8 142
-9 53 -4 62 -12 33 -32 -34 -24 -61 -56 -55 -66 8 -13 21 -10 66 21 32 21 64
32 123 40 119 17 125 19 125 41 0 26 -26 35 -115 44 -169 17 -354 61 -371 87
-7 12 -21 11 -29 -1z"/>
<path d="M567 4442 c-12 -13 -15 -28 -10 -56 3 -21 0 -54 -7 -75 -11 -33 -10
-46 5 -90 32 -97 1 -228 -80 -333 -24 -31 -56 -81 -71 -110 -14 -29 -43 -75
-64 -103 -20 -27 -45 -70 -54 -94 -33 -85 -78 -127 -89 -83 -2 9 -5 -30 -5
-88 -1 -138 -13 -187 -67 -294 -25 -49 -45 -95 -45 -103 0 -7 -9 -42 -21 -76
-17 -49 -22 -94 -25 -222 -4 -121 -9 -168 -21 -193 -14 -27 -14 -35 -4 -42 8
-5 12 -18 9 -33 -3 -16 0 -28 8 -31 8 -3 14 -12 14 -20 0 -8 8 -19 18 -25 14
-8 15 -13 4 -28 -22 -33 -25 -46 -14 -62 17 -22 18 -26 43 -110 15 -49 33 -87
55 -111 39 -43 50 -68 65 -154 8 -51 15 -65 31 -69 16 -5 19 -11 14 -32 -6
-23 -5 -25 13 -16 26 14 51 4 51 -22 0 -11 5 -49 11 -85 11 -59 15 -66 55 -95
31 -22 49 -44 65 -84 14 -36 27 -53 39 -53 22 0 34 -15 49 -62 7 -20 19 -42
27 -49 9 -7 26 -33 39 -58 34 -66 104 -134 130 -126 11 4 49 9 85 12 56 4 70
2 99 -19 47 -32 74 -114 75 -228 0 -83 -1 -88 -57 -207 -69 -148 -81 -199 -74
-318 6 -119 35 -198 90 -247 42 -37 67 -48 67 -27 0 5 4 8 9 5 5 -4 7 2 5 11
-10 40 77 126 108 107 7 -4 9 -41 6 -108 l-5 -102 36 18 c19 10 45 18 57 18
13 0 34 4 48 10 23 8 25 15 28 82 2 57 6 73 18 73 11 0 16 -17 20 -70 6 -83
27 -99 54 -40 9 19 21 35 26 35 9 0 78 93 87 118 3 10 14 35 24 57 15 36 39
233 39 327 l0 31 -38 -42 c-51 -58 -87 -62 -178 -23 -38 16 -94 35 -124 42
-65 15 -118 40 -143 68 -19 20 -18 21 15 26 18 3 62 8 98 11 36 4 70 11 77 17
17 13 17 80 1 96 -9 9 -13 45 -13 106 l0 93 41 45 c23 25 54 64 69 87 23 34
25 44 15 56 -7 8 -19 15 -26 15 -27 0 -122 -48 -137 -70 -14 -21 -19 -22 -45
-11 -16 7 -39 30 -51 51 -34 61 -66 261 -43 273 4 2 61 0 127 -4 197 -11 243
-46 265 -196 13 -88 64 -219 84 -215 8 1 33 -7 56 -19 27 -14 66 -23 113 -26
52 -3 86 -11 124 -31 l51 -26 95 32 c53 18 102 29 111 26 21 -8 33 -55 41
-159 3 -49 13 -109 21 -133 9 -27 14 -84 14 -157 0 -109 1 -116 33 -177 55
-107 105 -173 171 -226 23 -19 82 -42 105 -42 11 0 27 -10 36 -22 12 -18 17
-20 24 -9 7 11 9 11 14 0 4 -10 6 -9 6 3 1 9 4 25 7 35 5 15 4 15 -5 3 -8 -11
-9 -6 -4 22 3 22 0 51 -7 68 -10 24 -10 34 -1 43 10 9 15 8 23 -8 7 -11 13
-29 14 -40 5 -54 18 -102 30 -116 15 -17 79 -14 68 3 -3 5 5 6 19 2 65 -16 82
20 52 106 -8 23 -15 44 -15 46 0 9 56 54 67 54 7 0 25 -18 40 -41 22 -33 28
-38 36 -24 6 11 3 24 -8 41 -9 14 -19 49 -22 77 -4 44 -2 55 16 71 12 11 29
16 41 13 26 -7 26 8 0 64 -11 24 -20 54 -20 67 0 12 -4 22 -9 22 -5 0 -9 6 -8
13 1 32 -4 48 -13 42 -5 -3 -10 3 -10 14 0 12 -5 21 -10 21 -6 0 -15 11 -21
24 -7 14 -17 22 -25 19 -9 -3 -15 8 -19 34 -3 21 -12 52 -20 68 -36 81 -42
206 -9 219 9 4 12 15 8 36 -6 25 -3 30 14 30 24 0 48 35 58 85 5 27 22 53 58
90 45 45 103 120 159 203 12 19 16 37 12 61 -6 33 -6 33 25 29 24 -4 33 0 42
16 6 12 46 55 89 96 78 76 123 145 134 211 3 19 13 38 21 42 8 5 26 33 39 64
26 57 31 78 18 70 -14 -9 -7 68 9 98 15 27 15 30 -1 43 -9 7 -10 11 -3 7 8 -4
12 3 12 22 0 16 6 38 14 48 8 11 12 25 9 32 -3 7 -1 13 3 13 5 0 10 25 12 56
2 39 -1 53 -9 49 -8 -6 -8 -2 0 13 6 12 11 25 10 29 -1 4 -1 15 0 23 1 13 2
13 11 0 7 -11 10 3 9 46 -1 34 1 66 5 73 4 6 3 18 -2 27 -5 9 -6 32 -2 50 5
19 4 32 -1 28 -5 -3 -4 7 1 21 12 32 12 38 1 31 -5 -3 -6 14 -3 39 3 35 1 46
-12 51 -9 3 -16 13 -16 21 0 8 -4 12 -9 9 -5 -3 -11 9 -13 28 -3 24 0 32 9 29
7 -3 13 0 13 6 0 6 7 8 15 5 20 -8 20 20 0 36 -12 10 -15 10 -15 0 0 -7 -9 -3
-20 10 -18 21 -18 24 -4 53 15 28 15 33 0 58 -9 15 -12 29 -7 31 4 1 6 40 3
86 -4 76 -6 81 -21 68 -9 -8 -29 -41 -46 -73 -16 -32 -33 -60 -36 -63 -3 -3
-13 -19 -22 -36 -12 -24 -15 -48 -10 -105 10 -131 8 -150 -29 -229 -20 -41
-39 -100 -43 -130 -8 -66 -31 -144 -55 -185 -10 -16 -30 -66 -45 -110 -35
-105 -80 -192 -117 -232 -51 -53 -144 -89 -278 -108 -38 -6 -54 -16 -104 -68
-41 -43 -71 -87 -97 -143 -49 -106 -55 -108 -236 -100 -160 8 -174 8 -313 1
-93 -5 -108 -3 -129 13 -23 18 -24 24 -25 155 0 76 -5 140 -11 146 -5 5 -50
21 -100 36 -49 14 -102 34 -117 45 -37 27 -45 26 -86 -17 l-34 -37 -46 25
c-39 20 -52 36 -82 94 -19 38 -37 72 -41 75 -3 3 -13 22 -22 43 -10 20 -22 37
-28 37 -14 0 -69 -29 -69 -36 0 -4 23 -46 51 -95 48 -83 51 -91 39 -119 -16
-38 -23 -38 -57 3 -42 49 -108 114 -207 202 -93 83 -158 149 -184 186 -14 20
-14 21 9 14 38 -12 111 -54 157 -92 25 -21 49 -33 58 -29 24 9 8 44 -48 103
-91 97 -101 160 -43 255 30 49 40 75 42 118 5 77 -1 83 -73 71 -32 -5 -62 -7
-66 -5 -3 2 4 23 16 47 24 45 46 121 46 159 0 52 -23 96 -85 163 -137 147
-215 268 -199 309 6 16 182 -67 229 -109 17 -15 44 -35 60 -46 34 -22 95 -26
95 -6 0 13 -7 20 -79 77 -52 40 -101 113 -101 150 0 16 -12 37 -31 56 -38 36
-219 306 -219 326 0 18 67 41 197 68 72 15 110 29 168 65 41 25 79 45 83 45
14 0 42 35 42 53 0 31 -43 24 -87 -13 -49 -43 -100 -60 -197 -67 l-71 -6 -21
59 c-28 79 -44 87 -87 46 -18 -17 -38 -32 -44 -32 -6 0 -14 27 -18 60 -7 64
-13 70 -38 42z m2468 -2344 c-4 -16 -31 -77 -61 -136 -30 -59 -54 -112 -54
-119 0 -15 -72 -26 -175 -26 -79 -1 -125 12 -125 35 0 23 79 84 166 128 87 44
127 68 168 102 60 48 72 56 79 51 5 -3 5 -18 2 -35z m-148 -401 c-3 -18 -27
-71 -55 -119 -45 -78 -49 -93 -55 -166 -7 -107 -32 -156 -125 -243 l-74 -69
35 -32 35 -33 6 -156 6 -156 -28 -13 c-15 -7 -68 -30 -119 -50 -152 -63 -197
-62 -248 4 -39 51 -39 114 0 180 26 45 29 60 36 185 7 136 27 221 53 221 6 0
43 -9 81 -20 89 -26 125 -26 125 -2 0 20 -44 65 -72 75 -24 8 -58 66 -58 97 0
35 32 84 71 107 19 11 77 37 130 57 81 31 107 47 165 101 80 74 99 81 91 32z"/>
<path d="M1212 3868 c-38 -35 -89 -80 -113 -101 l-44 -37 50 32 c28 18 55 37
61 43 6 5 32 28 58 50 42 35 75 75 62 75 -2 0 -36 -28 -74 -62z"/>
<path d="M1094 3492 c-14 -10 -44 -80 -44 -102 0 -12 7 -20 18 -21 90 -6 121
-19 207 -89 85 -69 175 -124 235 -145 165 -58 278 -70 353 -37 43 19 117 84
149 131 12 17 26 24 47 23 25 0 31 4 36 29 4 18 2 36 -5 44 -42 51 -293 84
-530 69 -234 -14 -249 -12 -355 56 -46 29 -100 49 -111 42z"/>
<path d="M2486 3291 c-10 -16 39 -50 79 -53 36 -3 40 -6 43 -33 4 -39 48 -85
81 -85 35 0 102 34 136 70 l29 30 -25 26 c-39 42 -57 48 -86 29 -20 -13 -31
-15 -49 -6 -13 6 -54 13 -91 16 -38 4 -78 8 -90 11 -12 2 -24 0 -27 -5z"/>
</g>
</svg>
